<svg width="222" height="50" viewBox="0 0 222 50" fill="none" xmlns="http://www.w3.org/2000/svg">
    <g clip-path="url(#clip0_122_272)">
        <mask id="mask0_122_272" style="mask-type:alpha" maskUnits="userSpaceOnUse" x="-1" y="-1" width="47" height="51">
            <path d="M2.10831 24.3609C7.22107 19.029 2.84351 19.6935 5.09868 17.1633L2.80652 13.7087C1.34931 13.1973 2.41481 24.0631 2.10831 24.3609ZM42.3426 24.5916C43.2172 24.9565 42.7594 14.0137 42.7145 13.7645C42.0228 12.9028 38.6125 19.276 38.2755 19.4569C40.2229 23.0659 36.9722 20.955 42.3426 24.5916ZM19.5584 39.3026C19.2229 38.542 11.9712 40.1887 11.8754 41.092C16.825 42.5802 25.1871 52.9629 19.5584 39.3026ZM37.3705 32.7485C36.6115 32.3047 34.0678 39.8587 34.676 40.1466C38.3073 37.6722 45.5358 36.0314 37.3705 32.7485ZM36.8599 31.1878C36.9879 31.2197 37.1081 31.277 37.2133 31.3563C37.3183 31.4357 37.4062 31.5355 37.4715 31.6495C37.5367 31.7636 37.578 31.8898 37.593 32.0202C37.6078 32.1507 37.596 32.2828 37.5582 32.4086L41.3894 34.4958C43.5976 34.1126 42.6247 27.8102 42.7997 26.2495C42.2085 26.149 41.8478 25.4469 42.1134 24.9033L38.4908 22.2599C36.319 22.0949 37.1617 30.0164 36.8599 31.1878ZM6.36564 29.0842C5.8722 28.5958 6.13972 27.6609 6.81086 27.5026C5.93825 23.2999 7.90938 15.5383 2.60174 24.6238C3.14473 25.1255 2.84153 26.1358 2.10896 26.2495C2.49209 31.6776 0.379608 38.4243 6.36498 29.0855L6.36564 29.0842ZM36.5336 14.1669C36.5517 14.3671 36.5068 14.5678 36.405 14.7414C36.3032 14.9149 36.1495 15.0526 35.9655 15.1352C36.3421 16.143 36.3202 19.4673 37.9525 19.2426C39.8575 15.5507 45.7537 10.7682 36.5336 14.1669ZM35.9067 13.3498C36.1637 14.2865 40.3325 12.5024 40.8735 12.4616C41.5162 10.6111 37.8065 9.37657 36.6459 8.56471C36.6486 8.56536 35.9067 13.3498 35.9067 13.3498ZM28.1405 39.7213C27.8425 40.7073 26.6601 41.3194 25.6555 40.9519C25.664 41.5435 22.5614 46.0209 24.0357 46.2609L33.0287 41.0926C33.4091 40.5943 28.258 39.8481 28.1405 39.7213ZM28.8995 7.70683C29.0105 8.01118 29.0438 8.33817 28.9966 8.6585C28.9493 8.97884 28.8228 9.28249 28.6287 9.54223C29.9082 11.0338 32.8965 13.1105 34.7897 13.6837C35.8407 13.7298 36.0957 9.02619 36.2899 8.35894C35.6227 8.08087 33.0425 6.0798 32.3681 6.84697C31.5814 6.17119 29.6928 7.35644 28.8981 7.70683H28.8995ZM27.071 6.44202C29.7701 7.44452 28.5473 7.41561 31.4241 6.10742C32.1818 5.53417 23.0733 0.933169 22.9418 0.690595C23.4155 0.985759 26.0795 7.49778 27.071 6.44202ZM33.2473 23.2171C34.1014 29.4957 27.4211 30.0643 35.77 31.6842C36.7681 31.8038 36.7054 23.4866 36.7806 22.8824C34.7917 21.8556 35.2164 22.1962 33.2473 23.2151V23.2171ZM31.8059 18.2867C32.614 19.6383 33.0852 21.1393 33.2196 22.7898C33.7315 22.3835 35.7297 21.9254 35.1002 20.9602C35.9952 19.9427 32.2062 18.735 31.8059 18.2854V18.2867ZM24.0601 13.1144C28.6636 13.4385 31.3098 18.3235 35.443 19.8612C37.0984 19.2413 35.7337 16.4381 35.5851 15.218C35.4379 15.22 35.2922 15.1886 35.159 15.1263C35.0258 15.0641 34.9086 14.9724 34.816 14.8585C34.7236 14.7447 34.6583 14.6113 34.6251 14.4686C34.5919 14.3259 34.5918 14.1776 34.6245 14.0348L31.2557 12.4847C30.1049 11.5847 28.7073 9.31609 27.069 10.3153C25.9084 9.36671 24.6474 12.5649 24.0601 13.1144ZM22.5977 13.0073C23.8144 13.785 25.24 10.4185 25.8179 9.86172C24.8377 9.11559 24.9348 7.40114 25.9871 6.77071L22.6182 0.91542L22.5977 13.0073ZM11.6983 25.1728C11.5128 23.5766 11.6574 21.8077 12.1397 20.3423C3.14209 17.7207 10.3251 22.3829 11.6971 25.1728H11.6983ZM13.5123 29.9763C12.3675 27.2895 9.55683 22.4821 7.36904 20.3016C5.93693 19.8842 7.42056 27.0299 7.1973 27.4716C8.12076 28.7141 11.8992 29.5957 13.5123 29.9763ZM14.4424 31.1169C14.4199 30.3083 8.47813 29.0961 7.94241 28.8647C7.73367 29.3057 7.13454 29.5279 6.68007 29.3097L3.20087 34.1374C3.03045 35.7777 13.9945 30.9781 14.4424 31.1188V31.1169ZM15.1776 31.8399C15.0613 31.0971 2.42075 34.8152 3.68903 36.3864C12.8074 42.4415 10.876 39.7252 15.1776 31.8419V31.8399ZM17.6375 33.5176C16.8633 33.1383 16.1395 32.6645 15.4827 32.1074L11.5517 40.0243C11.4269 40.7474 18.2829 38.3809 18.481 38.4216C19.2639 37.592 17.9619 34.4892 17.6375 33.5176ZM21.2144 34.5122C16.6942 33.4308 18.5338 34.0145 19.3325 37.3856C19.8352 37.8412 21.0063 34.6726 21.2144 34.5122ZM24.1738 34.4465C21.1735 34.3038 21.2594 35.2077 20.0551 37.594C20.5803 37.9766 20.5057 38.8864 19.9296 39.1816C21.733 44.2506 22.0633 49.3216 25.3001 40.7883C24.0093 40.1164 24.0601 38.0187 25.3793 37.4053L24.1738 34.4465ZM29.7225 31.8091C26.7038 35.1676 23.1731 32.4822 25.7419 37.2587C27.0414 36.8558 28.4086 37.9923 28.2237 39.3413C28.5744 39.2756 33.3946 40.85 33.3893 39.9987L29.7225 31.8091ZM30.1056 31.4469C29.7753 31.4712 33.8219 39.7647 33.744 39.8456C34.505 39.7265 36.4794 32.306 35.665 32.0549C34.8729 32.0871 30.3989 29.8448 30.1044 31.4469H30.1056ZM13.1556 12.4485C14.0381 12.1383 11.3509 7.95926 11.2697 7.51421C11.1223 7.55304 10.9678 7.55691 10.8187 7.5255C10.6695 7.49411 10.5299 7.42831 10.4109 7.33343C10.1989 7.7673 2.69422 10.9786 3.86211 11.8963L13.1556 12.4485ZM13.2216 13.1223C12.5611 12.6043 3.00601 11.5854 3.13284 13.5003C6.66157 19.9617 8.90418 16.2587 13.2216 13.1191V13.1223ZM14.947 13.1513C14.6934 13.6772 13.8947 13.8329 13.4594 13.43L7.98138 17.6419C7.87701 19.4542 11.0028 19.5528 12.2639 19.9762C12.783 18.5558 13.6154 17.2755 14.7608 16.1351C16.8673 13.8737 19.355 14.2597 14.947 13.1473V13.1513ZM14.7792 12.0186C14.7132 13.0079 17.6779 13.4912 18.3555 13.7481C19.5848 13.272 20.8909 13.0228 22.2099 13.0126L22.2324 0.83259L14.7792 12.0186ZM14.0909 11.7333C14.7178 12.4978 21.4464 0.754362 21.7925 0.788545C21.5044 1.10277 11.9725 6.14029 11.9871 6.57679C11.23 7.00934 13.4925 11.701 14.0909 11.73V11.7333ZM22.558 0.0226961L31.6414 5.24164C32.1825 4.5915 33.3702 5.00893 33.3359 5.88062C32.7564 6.2527 41.1139 10.5303 41.1305 10.6946C41.3107 10.4451 41.5481 10.2419 41.823 10.1019C42.098 9.96181 42.4023 9.88897 42.7112 9.88933C44.9479 9.83542 45.3574 13.2288 43.1855 13.706C43.1009 14.635 42.9648 25.1695 43.9603 25.3063C42.9239 25.7256 43.1729 32.5933 43.1861 33.6622C46.8747 34.2538 43.7938 39.624 41.4112 36.723L34.8684 40.4831C35.0817 41.086 34.5995 41.7657 33.9481 41.7513C33.6258 40.6857 24.6929 46.474 24.2259 46.5962C24.8152 47.8267 23.837 49.3677 22.4504 49.3309C21.0632 49.3612 20.0849 47.8334 20.6747 46.5962C20.2045 46.399 11.2868 40.7284 10.9533 41.7513C10.3046 41.7624 9.82105 41.0938 10.0331 40.4831L3.49351 36.7236C1.1452 39.6049 -2.00899 34.2722 1.71791 33.6622C1.76283 32.5447 1.94316 25.7486 0.943069 25.3069C1.98478 25.1755 1.73574 14.8151 1.71725 13.9144C-0.66012 13.739 -0.506209 9.99714 1.91608 10.0504C3.54239 11.7228 8.5739 7.76928 10.1606 7.02643C9.82238 6.41638 10.3046 5.59269 11.0193 5.61372C11.7115 7.20919 22.095 -0.469024 22.558 0.0226961Z" fill="url(#paint0_linear_122_272)" stroke="url(#paint1_linear_122_272)"/>
        </mask>
        <g mask="url(#mask0_122_272)">
            <path d="M2.10831 24.3609C7.22107 19.029 2.84351 19.6935 5.09868 17.1633L2.80652 13.7087C1.34931 13.1973 2.41481 24.0631 2.10831 24.3609ZM42.3426 24.5916C43.2172 24.9565 42.7594 14.0137 42.7145 13.7645C42.0228 12.9028 38.6125 19.276 38.2755 19.4569C40.2229 23.0659 36.9722 20.955 42.3426 24.5916ZM19.5584 39.3026C19.2229 38.542 11.9712 40.1887 11.8754 41.092C16.825 42.5802 25.1871 52.9629 19.5584 39.3026ZM37.3705 32.7485C36.6115 32.3047 34.0678 39.8587 34.676 40.1466C38.3073 37.6722 45.5358 36.0314 37.3705 32.7485ZM36.8599 31.1878C36.9879 31.2197 37.1081 31.277 37.2133 31.3563C37.3183 31.4357 37.4062 31.5355 37.4715 31.6495C37.5367 31.7636 37.578 31.8898 37.593 32.0202C37.6078 32.1507 37.596 32.2828 37.5582 32.4086L41.3894 34.4958C43.5976 34.1126 42.6247 27.8102 42.7997 26.2495C42.2085 26.149 41.8478 25.4469 42.1134 24.9033L38.4908 22.2599C36.319 22.0949 37.1617 30.0164 36.8599 31.1878ZM6.36564 29.0842C5.8722 28.5958 6.13972 27.6609 6.81086 27.5026C5.93825 23.2999 7.90938 15.5383 2.60174 24.6238C3.14473 25.1255 2.84153 26.1358 2.10896 26.2495C2.49209 31.6776 0.379608 38.4243 6.36498 29.0855L6.36564 29.0842ZM36.5336 14.1669C36.5517 14.3671 36.5068 14.5678 36.405 14.7414C36.3032 14.9149 36.1495 15.0526 35.9655 15.1352C36.3421 16.143 36.3202 19.4673 37.9525 19.2426C39.8575 15.5507 45.7537 10.7682 36.5336 14.1669ZM35.9067 13.3498C36.1637 14.2865 40.3325 12.5024 40.8735 12.4616C41.5162 10.6111 37.8065 9.37657 36.6459 8.56471C36.6486 8.56536 35.9067 13.3498 35.9067 13.3498ZM28.1405 39.7213C27.8425 40.7073 26.6601 41.3194 25.6555 40.9519C25.664 41.5435 22.5614 46.0209 24.0357 46.2609L33.0287 41.0926C33.4091 40.5943 28.258 39.8481 28.1405 39.7213ZM28.8995 7.70683C29.0105 8.01118 29.0438 8.33817 28.9966 8.6585C28.9493 8.97884 28.8228 9.28249 28.6287 9.54223C29.9082 11.0338 32.8965 13.1105 34.7897 13.6837C35.8407 13.7298 36.0957 9.02619 36.2899 8.35894C35.6227 8.08087 33.0425 6.0798 32.3681 6.84697C31.5814 6.17119 29.6928 7.35644 28.8981 7.70683H28.8995ZM27.071 6.44202C29.7701 7.44452 28.5473 7.41561 31.4241 6.10742C32.1818 5.53417 23.0733 0.933169 22.9418 0.690595C23.4155 0.985759 26.0795 7.49778 27.071 6.44202ZM33.2473 23.2171C34.1014 29.4957 27.4211 30.0643 35.77 31.6842C36.7681 31.8038 36.7054 23.4866 36.7806 22.8824C34.7917 21.8556 35.2164 22.1962 33.2473 23.2151V23.2171ZM31.8059 18.2867C32.614 19.6383 33.0852 21.1393 33.2196 22.7898C33.7315 22.3835 35.7297 21.9254 35.1002 20.9602C35.9952 19.9427 32.2062 18.735 31.8059 18.2854V18.2867ZM24.0601 13.1144C28.6636 13.4385 31.3098 18.3235 35.443 19.8612C37.0984 19.2413 35.7337 16.4381 35.5851 15.218C35.4379 15.22 35.2922 15.1886 35.159 15.1263C35.0258 15.0641 34.9086 14.9724 34.816 14.8585C34.7236 14.7447 34.6583 14.6113 34.6251 14.4686C34.5919 14.3259 34.5918 14.1776 34.6245 14.0348L31.2557 12.4847C30.1049 11.5847 28.7073 9.31609 27.069 10.3153C25.9084 9.36671 24.6474 12.5649 24.0601 13.1144ZM22.5977 13.0073C23.8144 13.785 25.24 10.4185 25.8179 9.86172C24.8377 9.11559 24.9348 7.40114 25.9871 6.77071L22.6182 0.91542L22.5977 13.0073ZM11.6983 25.1728C11.5128 23.5766 11.6574 21.8077 12.1397 20.3423C3.14209 17.7207 10.3251 22.3829 11.6971 25.1728H11.6983ZM13.5123 29.9763C12.3675 27.2895 9.55683 22.4821 7.36904 20.3016C5.93693 19.8842 7.42056 27.0299 7.1973 27.4716C8.12076 28.7141 11.8992 29.5957 13.5123 29.9763ZM14.4424 31.1169C14.4199 30.3083 8.47813 29.0961 7.94241 28.8647C7.73367 29.3057 7.13454 29.5279 6.68007 29.3097L3.20087 34.1374C3.03045 35.7777 13.9945 30.9781 14.4424 31.1188V31.1169ZM15.1776 31.8399C15.0613 31.0971 2.42075 34.8152 3.68903 36.3864C12.8074 42.4415 10.876 39.7252 15.1776 31.8419V31.8399ZM17.6375 33.5176C16.8633 33.1383 16.1395 32.6645 15.4827 32.1074L11.5517 40.0243C11.4269 40.7474 18.2829 38.3809 18.481 38.4216C19.2639 37.592 17.9619 34.4892 17.6375 33.5176ZM21.2144 34.5122C16.6942 33.4308 18.5338 34.0145 19.3325 37.3856C19.8352 37.8412 21.0063 34.6726 21.2144 34.5122ZM24.1738 34.4465C21.1735 34.3038 21.2594 35.2077 20.0551 37.594C20.5803 37.9766 20.5057 38.8864 19.9296 39.1816C21.733 44.2506 22.0633 49.3216 25.3001 40.7883C24.0093 40.1164 24.0601 38.0187 25.3793 37.4053L24.1738 34.4465ZM29.7225 31.8091C26.7038 35.1676 23.1731 32.4822 25.7419 37.2587C27.0414 36.8558 28.4086 37.9923 28.2237 39.3413C28.5744 39.2756 33.3946 40.85 33.3893 39.9987L29.7225 31.8091ZM30.1056 31.4469C29.7753 31.4712 33.8219 39.7647 33.744 39.8456C34.505 39.7265 36.4794 32.306 35.665 32.0549C34.8729 32.0871 30.3989 29.8448 30.1044 31.4469H30.1056ZM13.1556 12.4485C14.0381 12.1383 11.3509 7.95926 11.2697 7.51421C11.1223 7.55304 10.9678 7.55691 10.8187 7.5255C10.6695 7.49411 10.5299 7.42831 10.4109 7.33343C10.1989 7.7673 2.69422 10.9786 3.86211 11.8963L13.1556 12.4485ZM13.2216 13.1223C12.5611 12.6043 3.00601 11.5854 3.13284 13.5003C6.66157 19.9617 8.90418 16.2587 13.2216 13.1191V13.1223ZM14.947 13.1513C14.6934 13.6772 13.8947 13.8329 13.4594 13.43L7.98138 17.6419C7.87701 19.4542 11.0028 19.5528 12.2639 19.9762C12.783 18.5558 13.6154 17.2755 14.7608 16.1351C16.8673 13.8737 19.355 14.2597 14.947 13.1473V13.1513ZM14.7792 12.0186C14.7132 13.0079 17.6779 13.4912 18.3555 13.7481C19.5848 13.272 20.8909 13.0228 22.2099 13.0126L22.2324 0.83259L14.7792 12.0186ZM14.0909 11.7333C14.7178 12.4978 21.4464 0.754362 21.7925 0.788545C21.5044 1.10277 11.9725 6.14029 11.9871 6.57679C11.23 7.00934 13.4925 11.701 14.0909 11.73V11.7333ZM22.558 0.0226961L31.6414 5.24164C32.1825 4.5915 33.3702 5.00893 33.3359 5.88062C32.7564 6.2527 41.1139 10.5303 41.1305 10.6946C41.3107 10.4451 41.5481 10.2419 41.823 10.1019C42.098 9.96181 42.4023 9.88897 42.7112 9.88933C44.9479 9.83542 45.3574 13.2288 43.1855 13.706C43.1009 14.635 42.9648 25.1695 43.9603 25.3063C42.9239 25.7256 43.1729 32.5933 43.1861 33.6622C46.8747 34.2538 43.7938 39.624 41.4112 36.723L34.8684 40.4831C35.0817 41.086 34.5995 41.7657 33.9481 41.7513C33.6258 40.6857 24.6929 46.474 24.2259 46.5962C24.8152 47.8267 23.837 49.3677 22.4504 49.3309C21.0632 49.3612 20.0849 47.8334 20.6747 46.5962C20.2045 46.399 11.2868 40.7284 10.9533 41.7513C10.3046 41.7624 9.82105 41.0938 10.0331 40.4831L3.49351 36.7236C1.1452 39.6049 -2.00899 34.2722 1.71791 33.6622C1.76283 32.5447 1.94316 25.7486 0.943069 25.3069C1.98478 25.1755 1.73574 14.8151 1.71725 13.9144C-0.66012 13.739 -0.506209 9.99714 1.91608 10.0504C3.54239 11.7228 8.5739 7.76928 10.1606 7.02643C9.82238 6.41638 10.3046 5.59269 11.0193 5.61372C11.7115 7.20919 22.095 -0.469024 22.558 0.0226961Z" fill="url(#paint2_linear_122_272)" stroke="url(#paint3_linear_122_272)"/>
        </g>
        <path d="M22.2001 40.6977C31.2343 40.6977 38.558 33.4093 38.558 24.4186C38.558 15.4279 31.2343 8.13953 22.2001 8.13953C13.1658 8.13953 5.84216 15.4279 5.84216 24.4186C5.84216 33.4093 13.1658 40.6977 22.2001 40.6977Z" fill="url(#paint4_linear_122_272)"/>
        <path fill-rule="evenodd" clip-rule="evenodd" d="M22.2 10.4651C29.9435 10.4651 36.2211 16.7122 36.2211 24.4188C36.2211 32.1255 29.9437 38.3723 22.2001 38.3723C14.4565 38.3723 8.17896 32.1248 8.17896 24.4188C8.17896 16.7129 14.4563 10.4651 22.2 10.4651ZM22.2 10.4651C29.9435 10.4651 36.2211 16.7122 36.2211 24.4188C36.2211 32.1255 29.9437 38.3723 22.2001 38.3723C14.4565 38.3723 8.17896 32.1248 8.17896 24.4188C8.17896 16.7129 14.4563 10.4651 22.2 10.4651Z" fill="white"/>
        <path d="M22.2 10.4651C29.9435 10.4651 36.2211 16.7122 36.2211 24.4188C36.2211 32.1255 29.9437 38.3723 22.2001 38.3723C14.4565 38.3723 8.17896 32.1248 8.17896 24.4188C8.17896 16.7129 14.4563 10.4651 22.2 10.4651Z" stroke="white" stroke-width="0.5"/>
        <path fill-rule="evenodd" clip-rule="evenodd" d="M12.8529 24.8116C12.8529 26.5049 13.2257 27.9853 13.9793 29.3174C14.7451 30.6663 15.8744 31.7729 17.2385 32.5116C18.6614 33.3019 20.3495 33.7228 22.2952 33.7209C23.9675 33.7209 25.4608 33.4015 26.7687 32.7966C28.0095 32.2392 29.0977 31.3909 29.9411 30.3238C30.752 29.285 31.3028 28.0673 31.5473 26.7724C29.4884 26.6551 27.3835 26.5774 25.264 26.5393C24.9935 27.1112 24.5638 27.5929 24.0262 27.9265C23.4725 28.263 22.8345 28.4356 22.1865 28.424C21.1682 28.424 20.3645 28.0667 19.7752 27.3524C19.1858 26.6385 18.8919 25.6808 18.8913 24.4673C18.8907 23.2538 19.1853 22.2771 19.7752 21.5373C20.3652 20.7976 21.1682 20.4142 22.1865 20.4138C22.8384 20.404 23.4786 20.5873 24.0262 20.9408C24.5654 21.2956 24.9942 21.7947 25.2637 22.381C27.3832 22.4579 29.4879 22.6147 31.5469 22.8514C31.2908 21.4834 30.7431 20.1866 29.9407 19.0494C29.081 17.8229 27.9357 16.824 26.6036 16.1388C25.2715 15.4536 23.7926 15.1028 22.2947 15.1166C20.3491 15.1121 18.6607 15.6287 17.238 16.5441C15.8565 17.4315 14.7323 18.6664 13.9784 20.1249C13.2248 21.5713 12.8384 23.1808 12.8529 24.8116Z" fill="white"/>
        <path d="M64.4308 24.0612C64.4308 22.1077 64.8234 20.3681 65.6086 18.8426C66.4124 17.317 67.5528 16.1356 69.0297 15.2984C70.5066 14.4426 72.2452 14.0147 74.2455 14.0147C75.9654 14.0147 77.4984 14.3402 78.8444 14.9914C80.2091 15.624 81.3121 16.5263 82.1534 17.6984C83.0134 18.8705 83.5835 20.2379 83.864 21.8007H77.3021C77.003 21.1495 76.573 20.6472 76.0122 20.2937C75.47 19.9216 74.8438 19.7356 74.1334 19.7356C73.0864 19.7356 72.2545 20.1263 71.6376 20.9077C71.0394 21.6891 70.7403 22.7402 70.7403 24.0612C70.7403 25.3821 71.0394 26.4333 71.6376 27.2147C72.2545 27.996 73.0864 28.3867 74.1334 28.3867C74.8438 28.3867 75.47 28.21 76.0122 27.8565C76.573 27.4844 77.003 26.9728 77.3021 26.3216H83.864C83.5835 27.8844 83.0134 29.2519 82.1534 30.424C81.3121 31.596 80.2091 32.5077 78.8444 33.1588C77.4984 33.7914 75.9654 34.1077 74.2455 34.1077C72.2452 34.1077 70.5066 33.6891 69.0297 32.8519C67.5528 31.996 66.4124 30.8053 65.6086 29.2798C64.8234 27.7542 64.4308 26.0147 64.4308 24.0612ZM108.679 14.21V33.9681H102.454V26.2658H96.537V33.9681H90.3117V14.21H96.537V21.3263H102.454V14.21H108.679ZM128.418 30.9821H121.8L120.818 33.9681H114.284L121.547 14.21H128.726L135.961 33.9681H129.399L128.418 30.9821ZM126.903 26.3216L125.109 20.824L123.314 26.3216H126.903ZM147.806 14.21V33.9681H141.581V14.21H147.806ZM173.866 33.9681H167.64L161.05 24.0333V33.9681H154.825V14.21H161.05L167.64 24.3123V14.21H173.866V33.9681ZM187.11 19.1495V21.5774H193.279V26.2379H187.11V29.0286H194.12V33.9681H180.884V14.21H194.12V19.1495H187.11ZM213.32 33.9681L209.674 28.8333L206.646 33.9681H199.551L206.085 23.7821L199.271 14.21H206.646L210.151 19.1495L213.067 14.21H220.162L213.74 24.2007L220.695 33.9681H213.32Z" fill="white"/>
    </g>
    <defs>
        <linearGradient id="paint0_linear_122_272" x1="14.3956" y1="3.47664e-06" x2="50.2216" y2="6.25683" gradientUnits="userSpaceOnUse">
            <stop stop-color="#424C6E"/>
            <stop offset="1" stop-color="#53B9EA"/>
        </linearGradient>
        <linearGradient id="paint1_linear_122_272" x1="14.3956" y1="3.47664e-06" x2="50.2216" y2="6.25683" gradientUnits="userSpaceOnUse">
            <stop stop-color="#424C6E"/>
            <stop offset="1" stop-color="#53B9EA"/>
        </linearGradient>
        <linearGradient id="paint2_linear_122_272" x1="14.3956" y1="3.47664e-06" x2="50.2216" y2="6.25683" gradientUnits="userSpaceOnUse">
            <stop stop-color="#424C6E"/>
            <stop offset="1" stop-color="#53B9EA"/>
        </linearGradient>
        <linearGradient id="paint3_linear_122_272" x1="14.3956" y1="3.47664e-06" x2="50.2216" y2="6.25683" gradientUnits="userSpaceOnUse">
            <stop stop-color="#424C6E"/>
            <stop offset="1" stop-color="#53B9EA"/>
        </linearGradient>
        <linearGradient id="paint4_linear_122_272" x1="16.3326" y1="8.13954" x2="42.2715" y2="13.1414" gradientUnits="userSpaceOnUse">
            <stop stop-color="#424C6E"/>
            <stop offset="1" stop-color="#53B9EA"/>
        </linearGradient>
        <clipPath id="clip0_122_272">
            <rect width="222" height="50" fill="white"/>
        </clipPath>
    </defs>
</svg>
