<svg width="36" height="36" viewBox="0 0 36 36" fill="none" xmlns="http://www.w3.org/2000/svg">
    <path d="M30.5903 15.2698C30.5365 15.2698 30.4832 15.2723 30.4297 15.2739C30.4448 15.0328 30.4533 14.7897 30.4533 14.5444C30.4533 8.16879 25.2845 3 18.9088 3C14.0452 3 9.8844 6.00778 8.18399 10.2647C8.09473 10.2617 8.00546 10.2578 7.91565 10.2578C3.54391 10.2578 0 13.8018 0 18.1735C0 22.5452 3.54391 26.0891 7.91565 26.0891H30.5903C33.5781 26.0891 36 23.6672 36 20.6795C36 17.6917 33.5781 15.2698 30.5903 15.2698Z" fill="#EDEDED"/>
    <path d="M30.5903 15.0823C30.5365 15.0823 30.4832 15.0848 30.4296 15.0864C30.4447 14.8453 30.4532 14.6022 30.4532 14.3569C30.4532 7.98129 25.2845 2.8125 18.9088 2.8125C18.2925 2.8125 17.6874 2.86111 17.0972 2.95395C22.6134 3.82242 26.8324 8.5968 26.8324 14.3569C26.8324 14.6022 26.8236 14.8453 26.8088 15.0864C26.8621 15.0848 26.9156 15.0823 26.9695 15.0823C29.9572 15.0823 32.3792 17.5042 32.3792 20.492C32.3792 23.4797 29.9572 25.9016 26.9695 25.9016H30.5903C33.578 25.9016 36 23.4797 36 20.492C36 17.5042 33.578 15.0823 30.5903 15.0823Z" fill="#D6D6D6"/>
    <path d="M27.0181 18.3595C25.2581 17.6289 24.0285 15.9744 23.8604 14.0471C23.8373 13.7835 23.6135 13.583 23.3487 13.5846L17.997 13.6159L17.8882 13.6167L12.5365 13.6481C12.2687 13.6497 12.0504 13.8576 12.0298 14.1246C11.8812 16.0521 10.6699 17.7188 8.91843 18.468C8.62152 18.5949 8.44354 18.9009 8.47705 19.222C8.7226 21.5711 10.1536 29.5708 17.9536 33.1686C17.986 33.1837 18.0217 33.1914 18.0574 33.1911C18.0931 33.1908 18.1285 33.1828 18.1609 33.1675C25.9178 29.4783 27.2549 21.4632 27.4732 19.1107C27.5032 18.7872 27.3181 18.484 27.0181 18.3595Z" fill="#676A75"/>
    <path d="M27.0181 18.3595C25.2581 17.6289 24.0285 15.9744 23.8604 14.0471C23.8373 13.7835 23.6135 13.583 23.3487 13.5846L20.1324 13.6036C20.1316 16.0667 21.5406 18.6183 23.3937 19.3892C23.6945 19.5142 23.8824 19.8174 23.8524 20.1418C23.6602 22.2141 22.5986 28.6809 17.0453 32.7135C17.3383 32.8717 17.6402 33.0238 17.9536 33.1686C17.986 33.1834 18.0217 33.1911 18.0574 33.1908C18.0931 33.1908 18.1285 33.1826 18.1609 33.1672C25.9178 29.4783 27.2552 21.4632 27.4732 19.1107C27.5032 18.7872 27.3181 18.484 27.0181 18.3595Z" fill="#1C233D"/>
    <path d="M17.874 30.9531C12.492 28.0711 10.9798 22.6527 10.5595 20.0747C10.5359 19.9294 10.6021 19.7844 10.7282 19.7083C12.1537 18.8481 13.1883 17.4822 13.6335 15.8876C13.6769 15.7326 13.8167 15.6244 13.9777 15.6236L21.9309 15.5769C22.0919 15.5758 22.2331 15.6824 22.2781 15.8367C22.742 17.4262 23.7923 18.7797 25.2282 19.6235C25.3548 19.6979 25.4227 19.8421 25.401 19.9876C25.0112 22.5697 23.5621 28.0055 18.2148 30.9512C18.1091 31.0094 17.9803 31.01 17.874 30.9531Z" fill="#3DCAD6"/>
    <path d="M25.2282 19.6235C23.7923 18.7797 22.742 17.4262 22.2781 15.8367C22.2328 15.6824 22.0916 15.5758 21.9306 15.5769L18.5924 15.5964C19.0173 17.2891 20.0995 18.7374 21.6071 19.6235C21.734 19.6979 21.8018 19.8421 21.7798 19.9876C21.433 22.2871 20.2456 26.8494 16.2136 29.9012C16.7215 30.2785 17.2733 30.6318 17.8737 30.9531C17.9799 31.01 18.109 31.0094 18.2145 30.9512C23.5618 28.0055 25.0109 22.5697 25.4007 19.9876C25.4229 19.8421 25.3548 19.6979 25.2282 19.6235Z" fill="#198B9B"/>
    <path d="M21.5486 19.4609C21.2987 19.2952 20.9614 19.3636 20.7958 19.6138L17.6405 24.3756L15.8948 22.7183C15.6773 22.5118 15.3334 22.5205 15.1269 22.7381C14.9203 22.9556 14.9291 23.2995 15.1466 23.506L17.362 25.6094C17.4634 25.7058 17.5974 25.7585 17.7358 25.7585C17.9166 25.7585 18.089 25.6657 18.1887 25.5154L21.7016 20.2137C21.8672 19.9638 21.7989 19.6268 21.5486 19.4609Z" fill="#EDEDED"/>
</svg>
