<svg width="36" height="36" viewBox="0 0 36 36" fill="none" xmlns="http://www.w3.org/2000/svg">
    <g clip-path="url(#clip0_122_371)">
        <path d="M18.0366 10.1165H10.7564C10.4608 10.1165 10.2212 9.8769 10.2212 9.58124C10.2212 9.28558 10.4607 9.04602 10.7564 9.04602H18.0366C18.3322 9.04602 18.5718 9.28558 18.5718 9.58124C18.5718 9.8769 18.3322 10.1165 18.0366 10.1165ZM7.19023 10.1165H0.535219C0.239625 10.1165 0 9.8769 0 9.58124C0 9.28558 0.239555 9.04602 0.535219 9.04602H7.19023C7.48582 9.04602 7.72545 9.28558 7.72545 9.58124C7.72545 9.8769 7.48582 10.1165 7.19023 10.1165Z" fill="#D9EEFF"/>
        <path d="M7.70607 13.8627H2.67536C2.37976 13.8627 2.14014 13.6231 2.14014 13.3275C2.14014 13.0319 2.37969 12.7922 2.67536 12.7922H7.70607C8.00167 12.7922 8.24129 13.0318 8.24129 13.3275C8.24122 13.6231 8.00167 13.8627 7.70607 13.8627Z" fill="#D9EEFF"/>
        <path d="M4.29961 21.3533H0.535219C0.239625 21.3533 0 21.1137 0 20.8181C0 20.5224 0.239555 20.2828 0.535219 20.2828H4.29961C4.5952 20.2828 4.83483 20.5224 4.83483 20.8181C4.83483 21.1137 4.5952 21.3533 4.29961 21.3533Z" fill="#D9EEFF"/>
        <path d="M8.43625 25.0996H2.26471C1.96912 25.0996 1.72949 24.8601 1.72949 24.5644C1.72949 24.2688 1.96905 24.0292 2.26471 24.0292H8.43625C8.73184 24.0292 8.97147 24.2687 8.97147 24.5644C8.97147 24.86 8.73191 25.0996 8.43625 25.0996Z" fill="#D9EEFF"/>
        <path d="M6.43971 28.846H3.81818C3.52258 28.846 3.28296 28.6064 3.28296 28.3107C3.28296 28.0151 3.52251 27.7755 3.81818 27.7755H6.43971C6.7353 27.7755 6.97493 28.0151 6.97493 28.3107C6.97486 28.6064 6.7353 28.846 6.43971 28.846Z" fill="#D9EEFF"/>
        <path d="M14.8835 32.5923H6.97577C6.68018 32.5923 6.44055 32.3527 6.44055 32.0571C6.44055 31.7615 6.68011 31.5219 6.97577 31.5219H14.8835C15.1791 31.5219 15.4187 31.7614 15.4187 32.0571C15.4187 32.3527 15.1791 32.5923 14.8835 32.5923Z" fill="#D9EEFF"/>
        <path d="M9.08957 17.609H4.93073C4.63513 17.609 4.39551 17.3695 4.39551 17.0738C4.39551 16.7781 4.63506 16.5386 4.93073 16.5386H9.08957C9.38516 16.5386 9.62479 16.7781 9.62479 17.0738C9.62479 17.3695 9.38516 17.609 9.08957 17.609Z" fill="#D9EEFF"/>
        <path fill-rule="evenodd" clip-rule="evenodd" d="M25.2983 3.73511L23.5991 8.56972C24.477 8.67899 25.3569 8.87516 26.2287 9.16239C27.1005 9.44962 27.9259 9.8158 28.6966 10.2486L30.3957 5.41403L25.2983 3.73511Z" fill="#EFF6FF"/>
        <path fill-rule="evenodd" clip-rule="evenodd" d="M23.8743 1.14995L23.2452 3.0595C23.1097 3.47216 23.3342 3.92125 23.7468 4.05674L24.9565 4.45323L30.0519 6.13222L31.2595 6.53075C31.6722 6.66632 32.1212 6.4397 32.2568 6.02704L32.8859 4.11749C33.0213 3.70482 32.7948 3.25574 32.3822 3.12025L24.8715 0.64623C24.4588 0.510668 24.0097 0.737285 23.8743 1.14995Z" fill="#375E7D"/>
        <path fill-rule="evenodd" clip-rule="evenodd" d="M31.2595 6.53062C31.6722 6.66619 32.1212 6.43957 32.2568 6.02691L32.8858 4.11736C33.0213 3.70469 32.7948 3.25561 32.3822 3.12012L30.5212 2.5072C30.9339 2.64276 31.1605 3.09178 31.0249 3.50444L30.3958 5.41399C30.2603 5.82666 29.8112 6.0532 29.3986 5.91771H29.4026L30.052 6.13216L31.2595 6.53062Z" fill="#2B4D66"/>
        <path fill-rule="evenodd" clip-rule="evenodd" d="M17.82 34.6949C25.0838 37.0859 32.91 33.1373 35.301 25.8752C37.4067 19.485 34.6011 12.6579 28.9494 9.48003C28.1787 9.04712 27.3534 8.681 26.4815 8.39377C25.6097 8.10655 24.7298 7.9103 23.8519 7.80111C20.7874 7.41882 17.7512 8.0863 15.1822 9.58121C12.3604 11.2238 10.1029 13.8676 9.00255 17.2134C6.60961 24.4754 10.5581 32.3038 17.82 34.6949Z" fill="#375E7D"/>
        <path fill-rule="evenodd" clip-rule="evenodd" d="M25.5269 11.2966C19.8671 9.43151 13.7684 12.5103 11.9033 18.1702C10.0403 23.8302 13.117 29.9291 18.7768 31.7922C24.4366 33.6572 30.5353 30.5805 32.4003 24.9205L32.4064 24.9003C34.2572 19.2464 31.1806 13.1576 25.5269 11.2966Z" fill="#EFF6FF"/>
        <path fill-rule="evenodd" clip-rule="evenodd" d="M25.5268 11.2965L22.7151 19.8329C22.3894 20.8201 23.0165 21.7506 23.8499 22.0824L32.4063 24.9002C34.2572 19.2463 31.1805 13.1575 25.5268 11.2965Z" fill="#3DCAD6"/>
        <path fill-rule="evenodd" clip-rule="evenodd" d="M32.4063 24.9002C34.0287 19.9442 31.8642 14.6545 27.499 12.1704C28.2656 14.4582 28.6884 16.9747 28.6884 19.6165C28.6884 20.9718 28.5772 22.2948 28.3648 23.5692L32.4063 24.9002Z" fill="#197E90"/>
        <path fill-rule="evenodd" clip-rule="evenodd" d="M35.301 25.8753C37.4068 19.4851 34.6012 12.6579 28.9494 9.48008C28.3831 9.16044 27.7863 8.87926 27.1633 8.63858C26.9388 8.55161 26.7122 8.47068 26.4816 8.39383C26.2106 8.30481 25.9395 8.22388 25.6664 8.15308C26.3986 9.38298 27.0176 10.7322 27.499 12.1705C31.8642 14.6545 34.0286 19.9443 32.4064 24.9002C32.4043 24.9063 32.4023 24.9124 32.4003 24.9205C31.2413 28.4362 28.4498 30.9546 25.1445 31.9115C24.2566 33.2425 23.229 34.4158 22.0881 35.3928C27.9279 35.4211 33.3753 31.7233 35.301 25.8753Z" fill="#2B4D66"/>
        <path fill-rule="evenodd" clip-rule="evenodd" d="M25.1445 31.9114C28.4498 30.9546 31.2413 28.4362 32.4003 24.9205L32.4063 24.9002L28.3648 23.5692C27.9885 25.8328 27.2967 27.9467 26.35 29.834C25.984 30.5622 25.5815 31.2561 25.1445 31.9114Z" fill="#D9EEFF"/>
        <path fill-rule="evenodd" clip-rule="evenodd" d="M28.9494 9.48006L30.0518 6.13227L29.3984 5.91782L28.1908 5.51929L27.1632 8.63856C27.7862 8.87931 28.383 9.16049 28.9494 9.48006Z" fill="#D9EEFF"/>
        <path d="M18.789 32.291C18.7335 32.291 18.677 32.2823 18.6214 32.2639C18.3407 32.1715 18.188 31.8689 18.2806 31.5882L18.8571 29.8384C18.9495 29.5576 19.2518 29.4049 19.5329 29.4976C19.8136 29.59 19.9663 29.8926 19.8737 30.1733L19.2972 31.9231C19.223 32.1483 19.0138 32.291 18.789 32.291Z" fill="#375E7D"/>
        <path d="M13.6774 19.268C13.6218 19.268 13.5653 19.2592 13.5096 19.2408L11.7619 18.6643C11.4812 18.5717 11.3287 18.2691 11.4214 17.9883C11.5139 17.7077 11.8162 17.5549 12.0973 17.6478L13.845 18.2244C14.1257 18.3169 14.2782 18.6195 14.1855 18.9003C14.1113 19.1253 13.9021 19.268 13.6774 19.268Z" fill="#375E7D"/>
        <path d="M18.1381 14.0894C17.9426 14.0894 17.7542 13.9819 17.66 13.7956L16.8286 12.1509C16.6952 11.8872 16.801 11.5652 17.0647 11.4319C17.3285 11.2987 17.6505 11.4043 17.7838 11.668L18.6153 13.3126C18.7486 13.5764 18.6428 13.8983 18.3791 14.0317C18.3017 14.0708 18.2193 14.0894 18.1381 14.0894Z" fill="#375E7D"/>
        <path d="M27.0099 31.6761C26.8143 31.6761 26.6258 31.5683 26.5317 31.3817L25.7023 29.7371C25.5692 29.4732 25.6753 29.1513 25.9392 29.0183C26.203 28.8851 26.5249 28.9912 26.658 29.2552L27.4874 30.8998C27.6205 31.1637 27.5144 31.4856 27.2505 31.6186C27.1732 31.6576 27.0909 31.6761 27.0099 31.6761Z" fill="#375E7D"/>
        <path d="M12.5429 26.9123C12.3472 26.9123 12.1587 26.8046 12.0647 26.618C11.9316 26.3541 12.0376 26.0323 12.3015 25.8992L13.9461 25.0698C14.21 24.9365 14.5319 25.0426 14.6649 25.3066C14.7981 25.5705 14.692 25.8924 14.4281 26.0255L12.7835 26.8549C12.7062 26.8938 12.624 26.9123 12.5429 26.9123Z" fill="#375E7D"/>
        <path d="M20.6982 20.9083C20.5695 20.9083 20.4404 20.8622 20.3378 20.7687L16.452 17.2266C16.2336 17.0274 16.2179 16.689 16.417 16.4705C16.6161 16.2521 16.9545 16.2365 17.173 16.4355L21.0588 19.9776C21.2772 20.1768 21.2929 20.5152 21.0938 20.7337C20.9883 20.8495 20.8435 20.9083 20.6982 20.9083Z" fill="#375E7D"/>
        <path d="M22.6133 25.8563C22.3455 25.8563 22.1143 25.6557 22.0824 25.3831L21.8478 23.3745C21.8135 23.0809 22.0236 22.8151 22.3173 22.7808C22.6098 22.747 22.8766 22.9566 22.9109 23.2503L23.1455 25.259C23.1799 25.5525 22.9697 25.8183 22.6761 25.8526C22.655 25.855 22.6341 25.8563 22.6133 25.8563Z" fill="#375E7D"/>
        <path d="M22.1646 32.875C20.9723 32.875 19.7747 32.6844 18.6093 32.3004C12.679 30.3484 9.44258 23.9345 11.395 18.003C12.3418 15.1295 14.3505 12.7965 17.051 11.4338C19.7519 10.0709 22.8215 9.84172 25.6944 10.7884C31.613 12.7367 34.852 19.1381 32.9172 25.0604L32.913 25.0744C32.9116 25.079 32.9102 25.0836 32.9087 25.0881C31.962 27.9613 29.9533 30.2939 27.2527 31.6562C25.6474 32.4657 23.9117 32.875 22.1646 32.875ZM22.1414 11.2847C20.5589 11.2847 18.9872 11.6556 17.5332 12.3893C15.0879 13.6233 13.2691 15.7358 12.4117 18.3377C10.6438 23.7085 13.5742 29.5161 18.9441 31.2837C21.5458 32.1411 24.3252 31.9338 26.7706 30.7003C29.2138 29.4679 31.0317 27.3584 31.8899 24.7596L31.8939 24.7465C31.8951 24.7423 31.8965 24.738 31.8978 24.7338C33.6538 19.3696 30.7208 13.5698 25.3596 11.8049C25.3595 11.8049 25.3594 11.8048 25.3594 11.8048C24.3047 11.4573 23.2205 11.2847 22.1414 11.2847ZM32.4004 24.9204H32.4011H32.4004Z" fill="#3DCAD6"/>
        <path fill-rule="evenodd" clip-rule="evenodd" d="M22.7151 19.8329C21.7806 19.5255 20.7732 20.0332 20.4658 20.9678C20.1583 21.9023 20.666 22.9097 21.6005 23.2172C22.5351 23.5247 23.5424 23.017 23.8499 22.0824C24.1574 21.1479 23.6496 20.1404 22.7151 19.8329Z" fill="#198B9B"/>
        <path fill-rule="evenodd" clip-rule="evenodd" d="M23.85 22.0824C24.1574 21.1479 23.6497 20.1404 22.7152 19.833C22.2277 19.6731 21.72 19.7338 21.3013 19.9624C22.165 20.3103 22.6222 21.2752 22.3268 22.1734C22.1792 22.6184 21.8738 22.9683 21.4915 23.1787C21.5279 23.1929 21.5643 23.205 21.6007 23.2172C22.5352 23.5247 23.5426 23.017 23.85 22.0824Z" fill="#198B9B"/>
    </g>
    <defs>
        <clipPath id="clip0_122_371">
            <rect width="36" height="36" fill="white"/>
        </clipPath>
    </defs>
</svg>
