<svg width="36" height="36" viewBox="0 0 36 36" fill="none" xmlns="http://www.w3.org/2000/svg">
    <g clip-path="url(#clip0_122_343)">
        <path d="M18 36C27.9411 36 36 27.9411 36 18C36 8.05887 27.9411 0 18 0C8.05887 0 0 8.05887 0 18C0 27.9411 8.05887 36 18 36Z" fill="#FFCD55"/>
        <path d="M24.8897 1.36688L18 18V0C20.4406 0 22.7673 0.486773 24.8897 1.36688Z" fill="#F9B83F"/>
        <path d="M30.7279 5.27209C32.3858 6.92999 33.7208 8.91035 34.6331 11.1104L18 18L30.7279 5.27209Z" fill="#F9B83F"/>
        <path d="M18 18L34.6331 24.8897C35.5133 22.7673 36 20.4407 36 18H18Z" fill="#F9B83F"/>
        <path d="M11.1104 34.6331L18.0001 18V36C15.5594 36 13.2327 35.5132 11.1104 34.6331Z" fill="#F9B83F"/>
        <path d="M5.27217 30.7279C3.61427 29.07 2.27925 27.0896 1.36694 24.8896L18.0001 18L5.27217 30.7279Z" fill="#F9B83F"/>
        <path d="M18 17.9999L1.36688 11.1102C0.486703 13.2326 0 15.5593 0 17.9999H18Z" fill="#F9B83F"/>
        <path d="M18.0001 33.1026C26.341 33.1026 33.1027 26.3409 33.1027 18C33.1027 9.65902 26.341 2.89734 18.0001 2.89734C9.65914 2.89734 2.89746 9.65902 2.89746 18C2.89746 26.3409 9.65914 33.1026 18.0001 33.1026Z" fill="#FFF4CA"/>
        <path d="M12.1369 21.2975L12.9964 20.438C13.2793 20.1551 13.738 20.1551 14.0208 20.438L18 24.4171L21.9791 20.438C22.2619 20.1551 22.7206 20.1551 23.0035 20.438L23.863 21.2975C24.1458 21.5803 24.1458 22.039 23.863 22.3219L18.5122 27.6726C18.2293 27.9555 17.7707 27.9555 17.4878 27.6726L12.137 22.3219C11.8541 22.039 11.8541 21.5803 12.1369 21.2975Z" fill="#FFCD55"/>
        <path d="M23.863 21.2975L23.0035 20.438C22.7207 20.1551 22.262 20.1551 21.9791 20.438L16.1167 26.3015L17.4878 27.6726C17.7707 27.9555 18.2293 27.9555 18.5122 27.6726L23.863 22.3219C24.1459 22.039 24.1459 21.5803 23.863 21.2975Z" fill="#FFBE46"/>
        <path d="M18 11.5828L14.0208 15.5619C13.738 15.8448 13.2793 15.8448 12.9965 15.5619L12.137 14.7024C11.8541 14.4196 11.8541 13.9609 12.137 13.678L17.4877 8.32726C17.7706 8.0444 18.2293 8.0444 18.5121 8.32726L23.8629 13.678C24.1458 13.9609 24.1458 14.4196 23.8629 14.7024L23.0034 15.5619C22.7205 15.8448 22.2619 15.8448 21.979 15.5619L18 11.5828Z" fill="#FFCD55"/>
        <path d="M23.863 13.678L18.5122 8.32726C18.2293 8.0444 17.7707 8.0444 17.4878 8.32726L16.1167 9.69836L21.9791 15.5619C22.262 15.8448 22.7207 15.8448 23.0035 15.5619L23.863 14.7024C24.1458 14.4196 24.1458 13.9609 23.863 13.678Z" fill="#FFBE46"/>
        <path d="M24.9294 17.4878L25.7889 16.6283C26.0718 16.3454 26.5305 16.3454 26.8133 16.6283L27.6727 17.4878C27.9556 17.7707 27.9556 18.2293 27.6727 18.5122L26.8133 19.3717C26.5305 19.6545 26.0718 19.6545 25.7889 19.3717L24.9294 18.5122C24.6466 18.2292 24.6466 17.7707 24.9294 17.4878Z" fill="#FFBE46"/>
        <path d="M16.6284 17.4878L17.4879 16.6283C17.7708 16.3454 18.2294 16.3454 18.5123 16.6283L19.3718 17.4878C19.6547 17.7707 19.6547 18.2293 19.3718 18.5122L18.5123 19.3717C18.2294 19.6545 17.7708 19.6545 17.4879 19.3717L16.6284 18.5122C16.3455 18.2292 16.3455 17.7707 16.6284 17.4878Z" fill="#FFCD55"/>
        <path d="M8.32738 17.4878L9.18682 16.6283C9.46968 16.3454 9.92833 16.3454 10.2112 16.6283L11.0707 17.4878C11.3536 17.7707 11.3536 18.2293 11.0707 18.5122L10.2112 19.3717C9.92833 19.6545 9.46968 19.6545 9.18682 19.3717L8.32738 18.5122C8.04452 18.2292 8.04452 17.7707 8.32738 17.4878Z" fill="#FFCD55"/>
    </g>
    <defs>
        <clipPath id="clip0_122_343">
            <rect width="36" height="36" fill="white"/>
        </clipPath>
    </defs>
</svg>
