<svg width="36" height="36" viewBox="0 0 36 36" fill="none" xmlns="http://www.w3.org/2000/svg">
    <g clip-path="url(#clip0_122_496)">
        <path d="M30.5903 18.0823C30.5365 18.0823 30.4832 18.0848 30.4297 18.0864C30.4448 17.8453 30.4533 17.6022 30.4533 17.3569C30.4533 10.9813 25.2845 5.8125 18.9088 5.8125C14.0452 5.8125 9.8844 8.82028 8.18399 13.0772C8.09473 13.0742 8.00546 13.0703 7.91565 13.0703C3.54391 13.0703 0 16.6143 0 20.986C0 25.3577 3.54391 28.9016 7.91565 28.9016H30.5903C33.5781 28.9016 36 26.4797 36 23.492C36 20.5042 33.5781 18.0823 30.5903 18.0823Z" fill="#EDEDED"/>
        <path d="M30.5903 18.0823C30.5365 18.0823 30.4832 18.0848 30.4296 18.0864C30.4447 17.8453 30.4532 17.6022 30.4532 17.3569C30.4532 10.9813 25.2845 5.8125 18.9088 5.8125C18.2925 5.8125 17.6874 5.86111 17.0972 5.95395C22.6134 6.82242 26.8324 11.5968 26.8324 17.3569C26.8324 17.6022 26.8236 17.8453 26.8088 18.0864C26.8621 18.0848 26.9156 18.0823 26.9695 18.0823C29.9572 18.0823 32.3792 20.5042 32.3792 23.492C32.3792 26.4797 29.9572 28.9016 26.9695 28.9016H30.5903C33.578 28.9016 36 26.4797 36 23.492C36 20.5042 33.578 18.0823 30.5903 18.0823Z" fill="#D6D6D6"/>
        <path d="M18.9625 32.7437C23.4014 32.7437 26.9999 29.1452 26.9999 24.7062C26.9999 20.2673 23.4014 16.6688 18.9625 16.6688C14.5235 16.6688 10.925 20.2673 10.925 24.7062C10.925 29.1452 14.5235 32.7437 18.9625 32.7437Z" fill="#3DCAD6"/>
        <path d="M18.9625 16.6688C18.6829 16.6688 18.4065 16.6832 18.1343 16.7111C22.1841 17.1256 25.3435 20.547 25.3435 24.7062C25.3435 28.8655 22.1841 32.2868 18.1343 32.7015C18.4065 32.7293 18.6829 32.7437 18.9625 32.7437C23.4015 32.7437 26.9999 29.1453 26.9999 24.7063C26.9999 20.2673 23.4015 16.6688 18.9625 16.6688Z" fill="#3DCAD6"/>
        <path d="M17.7468 19.6376C15.582 20.374 14.4469 22.1197 14.3408 23.915C14.3272 24.1447 14.5234 24.331 14.7514 24.3003L16.0226 24.1294C16.1841 24.1077 16.3108 23.981 16.3332 23.8196C16.4111 23.2563 16.6663 22.7129 17.0994 22.2798C18.1219 21.2573 19.7595 21.2243 20.8216 22.1811C20.8857 22.2388 20.912 22.3278 20.8885 22.4108L20.6104 23.3902C20.5568 23.5789 20.7542 23.7407 20.9288 23.6512L23.0044 22.586C23.3377 22.415 23.4076 21.969 23.1428 21.7042L22.1123 20.6736C20.9699 19.5311 19.2763 19.1174 17.7468 19.6376Z" fill="white"/>
        <path d="M20.1782 29.7748C22.343 29.0384 23.4782 27.2927 23.5843 25.4975C23.5978 25.2678 23.4016 25.0814 23.1736 25.1121L21.9025 25.283C21.7409 25.3047 21.6142 25.4314 21.5918 25.5928C21.5139 26.1561 21.2587 26.6995 20.8256 27.1326C19.8031 28.1551 18.1656 28.1881 17.1034 27.2314C17.0393 27.1736 17.013 27.0846 17.0365 27.0016L17.3146 26.0223C17.3682 25.8335 17.1708 25.6717 16.9963 25.7613L14.9206 26.8264C14.5873 26.9974 14.5174 27.4434 14.7822 27.7082L15.8128 28.7388C16.9551 29.8814 18.6487 30.2951 20.1782 29.7748Z" fill="white"/>
    </g>
    <defs>
        <clipPath id="clip0_122_496">
            <rect width="36" height="36" fill="white"/>
        </clipPath>
    </defs>
</svg>
